<svg xmlns="http://www.w3.org/2000/svg" xmlns:xlink="http://www.w3.org/1999/xlink" version="1.0" x="0" y="0" width="2400" height="320.72702425906715" viewBox="38.9926643371582 107.49267578125 262.0146789550781 35.01466178894043" preserveAspectRatio="xMidYMid meet" color-interpolation-filters="sRGB"><g><defs><linearGradient id="92" x1="0%" y1="0%" x2="100%" y2="0%"><stop offset="0%" stop-color="#fa71cd"></stop> <stop offset="100%" stop-color="#9b59b6"></stop></linearGradient><linearGradient id="93" x1="0%" y1="0%" x2="100%" y2="0%"><stop offset="0%" stop-color="#f9d423"></stop> <stop offset="100%" stop-color="#f83600"></stop></linearGradient><linearGradient id="94" x1="0%" y1="0%" x2="100%" y2="0%"><stop offset="0%" stop-color="#0064d2"></stop> <stop offset="100%" stop-color="#1cb0f6"></stop></linearGradient><linearGradient id="95" x1="0%" y1="0%" x2="100%" y2="0%"><stop offset="0%" stop-color="#f00978"></stop> <stop offset="100%" stop-color="#3f51b1"></stop></linearGradient><linearGradient id="96" x1="0%" y1="0%" x2="100%" y2="0%"><stop offset="0%" stop-color="#7873f5"></stop> <stop offset="100%" stop-color="#ec77ab"></stop></linearGradient><linearGradient id="97" x1="0%" y1="0%" x2="100%" y2="0%"><stop offset="0%" stop-color="#f9d423"></stop> <stop offset="100%" stop-color="#e14fad"></stop></linearGradient><linearGradient id="98" x1="0%" y1="0%" x2="100%" y2="0%"><stop offset="0%" stop-color="#009efd"></stop> <stop offset="100%" stop-color="#2af598"></stop></linearGradient><linearGradient id="99" x1="0%" y1="0%" x2="100%" y2="0%"><stop offset="0%" stop-color="#ffcc00"></stop> <stop offset="100%" stop-color="#00b140"></stop></linearGradient><linearGradient id="100" x1="0%" y1="0%" x2="100%" y2="0%"><stop offset="0%" stop-color="#d51007"></stop> <stop offset="100%" stop-color="#ff8177"></stop></linearGradient><linearGradient id="102" x1="0%" y1="0%" x2="100%" y2="0%"><stop offset="0%" stop-color="#a2b6df"></stop> <stop offset="100%" stop-color="#0c3483"></stop></linearGradient><linearGradient id="103" x1="0%" y1="0%" x2="100%" y2="0%"><stop offset="0%" stop-color="#7ac5d8"></stop> <stop offset="100%" stop-color="#eea2a2"></stop></linearGradient><linearGradient id="104" x1="0%" y1="0%" x2="100%" y2="0%"><stop offset="0%" stop-color="#00ecbc"></stop> <stop offset="100%" stop-color="#007adf"></stop></linearGradient><linearGradient id="105" x1="0%" y1="0%" x2="100%" y2="0%"><stop offset="0%" stop-color="#b88746"></stop> <stop offset="100%" stop-color="#fdf5a6"></stop></linearGradient></defs><g fill="#444" class="iconblsvg-g iconsvg" transform="translate(41.561432003974915,110.06144046783447)"><g class="tp-name"><g transform="translate(0, 2.3323797348442437)"><g transform="scale(1)"><path d="M22.25-11.48L22.25-7.79Q22.25-6.03 21.65-4.56 21.05-3.08 19.97-2 18.9-0.93 17.42-0.33 15.95 0.27 14.22 0.27L14.22 0.27 9.49 0.27Q7.75 0.27 6.28-0.33 4.8-0.93 3.72-2 2.65-3.08 2.04-4.56 1.42-6.03 1.42-7.79L1.42-7.79 1.42-11.48Q1.42-13.22 2.04-14.71 2.65-16.19 3.72-17.26 4.8-18.33 6.28-18.94 7.75-19.54 9.49-19.54L9.49-19.54 14.22-19.54Q15.95-19.54 17.42-18.94 18.9-18.33 19.97-17.26 21.05-16.19 21.65-14.71 22.25-13.22 22.25-11.48L22.25-11.48ZM18.76-7.79L18.76-11.48Q18.76-12.51 18.43-13.35 18.1-14.19 17.5-14.79 16.91-15.39 16.07-15.72 15.23-16.05 14.22-16.05L14.22-16.05 9.49-16.05Q8.47-16.05 7.63-15.72 6.79-15.39 6.18-14.79 5.58-14.19 5.25-13.35 4.92-12.51 4.92-11.48L4.92-11.48 4.92-7.79Q4.92-6.76 5.25-5.92 5.58-5.08 6.18-4.48 6.79-3.88 7.63-3.55 8.47-3.23 9.49-3.23L9.49-3.23 14.19-3.23Q15.21-3.23 16.05-3.55 16.89-3.88 17.5-4.48 18.1-5.08 18.43-5.92 18.76-6.76 18.76-7.79L18.76-7.79ZM41.27-9.64L41.27-4.91Q41.27-4 41.04-3.29 40.81-2.57 40.44-2.02 40.06-1.48 39.56-1.1 39.07-0.71 38.52-0.47 37.98-0.23 37.43-0.11 36.88 0 36.38 0L36.38 0 30.08 0 30.08-3.49 36.38-3.49Q37.08-3.49 37.43-3.86 37.78-4.22 37.78-4.91L37.78-4.91 37.78-9.61Q37.78-10.33 37.42-10.68 37.06-11.03 36.38-11.03L36.38-11.03 30.1-11.03Q29.39-11.03 29.03-10.68 28.67-10.32 28.67-9.64L28.67-9.64 28.67 4.54 25.17 4.54 25.17-9.64Q25.17-10.54 25.4-11.25 25.63-11.96 26.01-12.5 26.39-13.05 26.89-13.43 27.39-13.82 27.93-14.06 28.48-14.3 29.03-14.41 29.59-14.53 30.08-14.53L30.08-14.53 36.38-14.53Q37.28-14.53 37.99-14.3 38.7-14.07 39.25-13.69 39.79-13.32 40.18-12.82 40.56-12.32 40.8-11.78 41.04-11.23 41.16-10.68 41.27-10.13 41.27-9.64L41.27-9.64ZM59.88-9.72L59.88-9.72Q59.88-8.99 59.63-8.15 59.37-7.31 58.8-6.59 58.23-5.87 57.31-5.39 56.39-4.91 55.07-4.91L55.07-4.91 48.77-4.91 48.77-8.22 55.07-8.22Q55.79-8.22 56.17-8.66 56.56-9.1 56.56-9.74L56.56-9.74Q56.56-10.43 56.13-10.82 55.69-11.21 55.07-11.21L55.07-11.21 48.77-11.21Q48.06-11.21 47.67-10.77 47.28-10.33 47.28-9.69L47.28-9.69 47.28-4.81Q47.28-4.11 47.71-3.72 48.15-3.33 48.8-3.33L48.8-3.33 55.07-3.33 55.07 0 48.77 0Q48.04 0 47.2-0.26 46.36-0.51 45.65-1.08 44.93-1.65 44.44-2.57 43.96-3.49 43.96-4.81L43.96-4.81 43.96-9.72Q43.96-10.44 44.21-11.28 44.47-12.12 45.04-12.84 45.61-13.56 46.53-14.04 47.45-14.53 48.77-14.53L48.77-14.53 55.07-14.53Q55.8-14.53 56.64-14.27 57.48-14.02 58.2-13.45 58.92-12.87 59.4-11.95 59.88-11.03 59.88-9.72ZM78.34-8.06L78.34 0 74.84 0 74.84-8.06Q74.84-8.75 74.61-9.29 74.37-9.84 73.97-10.23 73.56-10.62 73.02-10.83 72.48-11.03 71.84-11.03L71.84-11.03 65.73-11.03 65.73 0 62.24 0 62.24-12.79Q62.24-13.16 62.37-13.47 62.5-13.79 62.75-14.02 62.99-14.26 63.31-14.39 63.63-14.53 64-14.53L64-14.53 71.87-14.53Q72.53-14.53 73.26-14.38 73.99-14.23 74.71-13.9 75.43-13.57 76.08-13.07 76.74-12.57 77.24-11.85 77.74-11.13 78.04-10.19 78.34-9.25 78.34-8.06L78.34-8.06ZM99.04-3.49L99.04 0 86.44 0Q85.96 0 85.4-0.11 84.84-0.23 84.3-0.47 83.75-0.71 83.25-1.1 82.76-1.48 82.37-2.02 81.99-2.57 81.76-3.29 81.53-4 81.53-4.91L81.53-4.91 81.53-14.37Q81.53-14.85 81.65-15.41 81.76-15.97 82-16.51 82.25-17.05 82.64-17.55 83.03-18.05 83.57-18.43 84.11-18.81 84.83-19.04 85.54-19.27 86.44-19.27L86.44-19.27 99.04-19.27 99.04-15.78 86.44-15.78Q85.75-15.78 85.39-15.41 85.03-15.05 85.03-14.34L85.03-14.34 85.03-4.91Q85.03-4.23 85.4-3.86 85.77-3.49 86.44-3.49L86.44-3.49 99.04-3.49ZM117.66-14.53L117.66-1.76Q117.66-1.38 117.52-1.06 117.39-0.74 117.15-0.5 116.92-0.27 116.6-0.13 116.29 0 115.92 0L115.92 0 108.02 0Q107.38 0 106.64-0.15 105.91-0.3 105.2-0.62 104.49-0.95 103.82-1.46 103.16-1.96 102.66-2.68 102.16-3.4 101.86-4.34 101.56-5.28 101.56-6.46L101.56-6.46 101.56-14.53 105.05-14.53 105.05-6.46Q105.05-5.78 105.29-5.23 105.52-4.69 105.93-4.3 106.33-3.91 106.87-3.7 107.42-3.49 108.05-3.49L108.05-3.49 114.16-3.49 114.16-14.53 117.66-14.53ZM133.65-14.53L133.65-11.03 125.79-11.03Q125.08-11.03 124.71-10.68 124.35-10.32 124.35-9.64L124.35-9.64 124.35 0 120.86 0 120.86-9.64Q120.86-10.54 121.08-11.25 121.31-11.96 121.7-12.5 122.08-13.05 122.58-13.43 123.07-13.82 123.62-14.06 124.16-14.3 124.72-14.41 125.28-14.53 125.76-14.53L125.76-14.53 133.65-14.53ZM151.52-9.72L151.52-9.72Q151.52-8.99 151.27-8.15 151.01-7.31 150.44-6.59 149.87-5.87 148.95-5.39 148.03-4.91 146.71-4.91L146.71-4.91 140.41-4.91 140.41-8.22 146.71-8.22Q147.43-8.22 147.81-8.66 148.2-9.1 148.2-9.74L148.2-9.74Q148.2-10.43 147.77-10.82 147.33-11.21 146.71-11.21L146.71-11.21 140.41-11.21Q139.7-11.21 139.31-10.77 138.92-10.33 138.92-9.69L138.92-9.69 138.92-4.81Q138.92-4.11 139.36-3.72 139.79-3.33 140.44-3.33L140.44-3.33 146.71-3.33 146.71 0 140.41 0Q139.68 0 138.84-0.26 138-0.51 137.29-1.08 136.57-1.65 136.08-2.57 135.6-3.49 135.6-4.81L135.6-4.81 135.6-9.72Q135.6-10.44 135.85-11.28 136.11-12.12 136.68-12.84 137.25-13.56 138.17-14.04 139.09-14.53 140.41-14.53L140.41-14.53 146.71-14.53Q147.44-14.53 148.28-14.27 149.12-14.02 149.84-13.45 150.56-12.87 151.04-11.95 151.52-11.03 151.52-9.72Z" transform="translate(-1.4200000762939453, 20.670000076293945)"></path></g></g> <g transform="translate(153.10000610351562, 0)"><g><g class="imagesvg"><g><rect fill="#444" fill-opacity="0" stroke-width="2" x="0" y="0" width="29.877120735378437" height="29.877120735378437" class="image-rect"></rect> <svg filter="url(#colors4953096808)" x="0" y="0" width="29.877120735378437" height="29.877120735378437" filtersec="colorsf5920875674" class="image-svg-svg primary" style="overflow: visible;"><svg xmlns="http://www.w3.org/2000/svg" viewBox="0 0 50.530006408691406 50.53000259399414"><path d="M36.66 18.69a3.41 3.41 0 1 0-4.82 0 3.41 3.41 0 0 0 4.82 0z" fill="#0cf"></path><circle cx="46.16" cy="4.37" r="4.37" fill="#0cf"></circle><path d="M18.69 18.69a3.41 3.41 0 1 0-4.82 0 3.41 3.41 0 0 0 4.82 0zM31.84 36.66a3.41 3.41 0 1 0 0-4.82 3.41 3.41 0 0 0 0 4.82z" fill="#0cf"></path><circle cx="46.16" cy="46.16" r="4.37" fill="#0cf"></circle><path d="M18.82 36.53a3.4 3.4 0 1 0-4.81 0 3.41 3.41 0 0 0 4.81 0z" fill="#0cf"></path><path d="M22.1 9.32c-1.3 1-2.61 2.09-3.92 3.25a4.14 4.14 0 0 1 1.07.75 4.25 4.25 0 0 1 .87 1.29c1.49-1.32 3-2.54 4.46-3.63-.83-.6-1.66-1.14-2.48-1.66zM9.3 22.12c.51.82 1.07 1.65 1.66 2.48 1.14-1.56 2.38-3.05 3.65-4.48a4.17 4.17 0 0 1-1.29-.88 4.09 4.09 0 0 1-.75-1.06 63.1 63.1 0 0 0-3.27 3.94zM31.28 37.21a4.2 4.2 0 0 1-.87-1.29C23.08 42.44 15 46.63 9.62 46.63a5.81 5.81 0 0 1-4.26-1.47c-1.94-1.95-1.92-5.93.08-11a38.23 38.23 0 0 1 2.91-5.73c-.63-.82-1.21-1.65-1.76-2.47a42.35 42.35 0 0 0-3.76 7.17c-2.47 6.19-2.27 11.16.55 14a8.44 8.44 0 0 0 6.23 2.27c6.27 0 14.72-4.26 22.73-11.43a4.3 4.3 0 0 1-1.06-.76zM34.2 5.45a18.65 18.65 0 0 1 6.7-1.53h.1a5.19 5.19 0 0 1 1.09-2.74 11.53 11.53 0 0 0-1.19-.07 21.21 21.21 0 0 0-7.74 1.72A43 43 0 0 0 26 6.57c.82.56 1.65 1.14 2.48 1.77a37.86 37.86 0 0 1 5.72-2.89zM49.34 8.44a5.1 5.1 0 0 1-2.75 1.08 18.47 18.47 0 0 1-1.5 6.81 39.1 39.1 0 0 1-2.9 5.73c.61.82 1.2 1.65 1.76 2.48a42.72 42.72 0 0 0 3.75-7.18 19.61 19.61 0 0 0 1.64-8.92zM41.23 28.42c-.51-.82-1.06-1.65-1.65-2.48-1.11 1.51-2.34 3-3.65 4.47a4 4 0 0 1 2 1.95c1.22-1.36 2.31-2.64 3.3-3.94z" fill="#00a0da"></path><path d="M3.94 9.52a5.1 5.1 0 0 1-2.76-1.09 19.79 19.79 0 0 0 1.65 8.93 52.88 52.88 0 0 0 9.77 15 4.15 4.15 0 0 1 .85-1.24 3.9 3.9 0 0 1 1.12-.78 49.38 49.38 0 0 1-9.12-14 18.72 18.72 0 0 1-1.51-6.82zM40.9 46.59a18.73 18.73 0 0 1-6.7-1.51 38.11 38.11 0 0 1-5.74-2.89c-.82.62-1.64 1.2-2.45 1.76a42.14 42.14 0 0 0 7.16 3.75 21.38 21.38 0 0 0 7.75 1.72 11.71 11.71 0 0 0 1.19-.06A5.12 5.12 0 0 1 41 46.58zM24.57 39.57a64.141 64.141 0 0 1-4.41-3.61 4.08 4.08 0 0 1-.78 1.13 4.25 4.25 0 0 1-1.24.84c1.3 1.17 2.63 2.27 3.95 3.29.83-.52 1.65-1.06 2.48-1.65zM46.59 41a5.17 5.17 0 0 1 2.76 1.09 19.22 19.22 0 0 0-1.65-8.93 52.53 52.53 0 0 0-9.73-15 4.31 4.31 0 0 1-.75 1.07 4.14 4.14 0 0 1-1.29.87 49.56 49.56 0 0 1 9.16 14.1 18.52 18.52 0 0 1 1.5 6.8zM9.62 3.9c5.38 0 13.46 4.19 20.79 10.71a4.08 4.08 0 0 1 .87-1.29 4.18 4.18 0 0 1 1.07-.76C24.35 5.4 15.89 1.14 9.62 1.14a11.37 11.37 0 0 0-1.18.06 5 5 0 0 1 1.07 2.71z" fill="#00a0da"></path><circle cx="4.37" cy="4.37" r="4.37" fill="#0cf"></circle></svg></svg> <defs><filter id="colors4953096808"><feColorMatrix type="matrix" values="0 0 0 0 0.265625  0 0 0 0 0.265625  0 0 0 0 0.265625  0 0 0 1 0" class="icon-feColorMatrix "></feColorMatrix></filter> <filter id="colorsf5920875674"><feColorMatrix type="matrix" values="0 0 0 0 0.99609375  0 0 0 0 0.99609375  0 0 0 0 0.99609375  0 0 0 1 0" class="icon-fecolormatrix"></feColorMatrix></filter> <filter id="colorsb2963776201"><feColorMatrix type="matrix" values="0 0 0 0 0  0 0 0 0 0  0 0 0 0 0  0 0 0 1 0" class="icon-fecolormatrix"></feColorMatrix></filter></defs></g></g></g></g> <g fill="#444" transform="translate(185.9771270751953, 2.3323797348442437)"><g transform="scale(1)"><path d="M19.73-3.49L19.73 0 3.79 0Q3.41 0 3.09-0.13 2.77-0.27 2.53-0.5 2.3-0.74 2.16-1.06 2.03-1.38 2.03-1.76L2.03-1.76 2.03-19.27 5.52-19.27 5.52-3.49 19.73-3.49ZM36.9-9.72L36.9-4.81Q36.9-4.09 36.65-3.25 36.39-2.41 35.82-1.69 35.25-0.97 34.33-0.48 33.41 0 32.09 0L32.09 0 25.79 0Q25.06 0 24.22-0.26 23.38-0.51 22.66-1.08 21.95-1.65 21.46-2.57 20.98-3.49 20.98-4.81L20.98-4.81Q20.98-5.54 21.23-6.38 21.49-7.23 22.06-7.95 22.63-8.67 23.55-9.15 24.47-9.64 25.79-9.64L25.79-9.64 32.09-9.64 32.09-6.3 25.79-6.3Q25.08-6.3 24.69-5.87 24.3-5.43 24.3-4.78L24.3-4.78Q24.3-4.1 24.75-3.72 25.2-3.33 25.82-3.33L25.82-3.33 32.09-3.33Q32.8-3.33 33.19-3.76 33.58-4.19 33.58-4.84L33.58-4.84 33.58-9.72Q33.58-10.4 33.16-10.8 32.74-11.21 32.09-11.21L32.09-11.21 24.42-11.21 24.42-14.53 32.09-14.53Q32.82-14.53 33.66-14.27 34.5-14.02 35.22-13.45 35.94-12.87 36.42-11.95 36.9-11.03 36.9-9.72L36.9-9.72ZM55.91-9.64L55.91-4.91Q55.91-4.41 55.79-3.86 55.68-3.31 55.44-2.76 55.19-2.22 54.81-1.72 54.43-1.22 53.88-0.84 53.34-0.46 52.63-0.23 51.91 0 51.01 0L51.01 0 44.71 0Q44.21 0 43.66-0.11 43.11-0.23 42.57-0.47 42.02-0.71 41.53-1.1 41.03-1.48 40.65-2.02 40.26-2.57 40.03-3.29 39.81-4 39.81-4.91L39.81-4.91 39.81-20.67 43.3-20.67 43.3-4.91Q43.3-4.26 43.7-3.88 44.11-3.49 44.71-3.49L44.71-3.49 51.01-3.49Q51.67-3.49 52.04-3.88 52.41-4.27 52.41-4.91L52.41-4.91 52.41-9.64Q52.41-10.29 52.02-10.66 51.63-11.03 51.01-11.03L51.01-11.03 44.71-11.03 44.71-14.53 51.01-14.53Q51.51-14.53 52.06-14.41 52.61-14.3 53.16-14.06 53.7-13.82 54.2-13.43 54.7-13.05 55.07-12.5 55.45-11.96 55.68-11.25 55.91-10.54 55.91-9.64L55.91-9.64ZM72.93-4.91L72.93-4.91Q72.93-4 72.7-3.29 72.48-2.57 72.1-2.02 71.72-1.48 71.23-1.1 70.73-0.71 70.18-0.47 69.64-0.23 69.08-0.11 68.53 0 68.03 0L68.03 0 58.57 0 58.57-3.49 68-3.49Q68.71-3.49 69.08-3.86 69.44-4.22 69.44-4.91L69.44-4.91Q69.37-6.3 68.03-6.3L68.03-6.3 62.61-6.3Q61.46-6.3 60.65-6.71 59.84-7.11 59.34-7.71 58.84-8.32 58.61-9.02 58.39-9.72 58.39-10.32L58.39-10.32Q58.39-11.49 58.81-12.29 59.23-13.09 59.86-13.59 60.49-14.08 61.23-14.31 61.97-14.53 62.61-14.53L62.61-14.53 71.2-14.53 71.2-11.03 62.64-11.03Q62.37-11.03 62.22-10.97 62.06-10.91 61.99-10.81 61.91-10.71 61.9-10.6 61.89-10.48 61.89-10.37L61.89-10.37Q61.9-10.16 61.97-10.04 62.03-9.92 62.13-9.86 62.24-9.81 62.36-9.8 62.49-9.8 62.61-9.8L62.61-9.8 68.03-9.8Q69.37-9.8 70.31-9.31 71.25-8.83 71.83-8.1 72.41-7.36 72.67-6.5 72.93-5.64 72.93-4.91Z" transform="translate(-2.0299999713897705, 20.670000076293945)"></path></g></g></g> </g><defs v-gra="od"></defs></g></svg>