<svg xmlns="http://www.w3.org/2000/svg" xmlns:xlink="http://www.w3.org/1999/xlink" version="1.0" x="0" y="0" width="2400" height="2399.999849788768" viewBox="154.76266067504883 109.7626759338379 30.474663391113282 30.47466148376465" preserveAspectRatio="xMidYMid meet" color-interpolation-filters="sRGB"><g><defs><linearGradient id="92" x1="0%" y1="0%" x2="100%" y2="0%"><stop offset="0%" stop-color="#fa71cd"></stop> <stop offset="100%" stop-color="#9b59b6"></stop></linearGradient><linearGradient id="93" x1="0%" y1="0%" x2="100%" y2="0%"><stop offset="0%" stop-color="#f9d423"></stop> <stop offset="100%" stop-color="#f83600"></stop></linearGradient><linearGradient id="94" x1="0%" y1="0%" x2="100%" y2="0%"><stop offset="0%" stop-color="#0064d2"></stop> <stop offset="100%" stop-color="#1cb0f6"></stop></linearGradient><linearGradient id="95" x1="0%" y1="0%" x2="100%" y2="0%"><stop offset="0%" stop-color="#f00978"></stop> <stop offset="100%" stop-color="#3f51b1"></stop></linearGradient><linearGradient id="96" x1="0%" y1="0%" x2="100%" y2="0%"><stop offset="0%" stop-color="#7873f5"></stop> <stop offset="100%" stop-color="#ec77ab"></stop></linearGradient><linearGradient id="97" x1="0%" y1="0%" x2="100%" y2="0%"><stop offset="0%" stop-color="#f9d423"></stop> <stop offset="100%" stop-color="#e14fad"></stop></linearGradient><linearGradient id="98" x1="0%" y1="0%" x2="100%" y2="0%"><stop offset="0%" stop-color="#009efd"></stop> <stop offset="100%" stop-color="#2af598"></stop></linearGradient><linearGradient id="99" x1="0%" y1="0%" x2="100%" y2="0%"><stop offset="0%" stop-color="#ffcc00"></stop> <stop offset="100%" stop-color="#00b140"></stop></linearGradient><linearGradient id="100" x1="0%" y1="0%" x2="100%" y2="0%"><stop offset="0%" stop-color="#d51007"></stop> <stop offset="100%" stop-color="#ff8177"></stop></linearGradient><linearGradient id="102" x1="0%" y1="0%" x2="100%" y2="0%"><stop offset="0%" stop-color="#a2b6df"></stop> <stop offset="100%" stop-color="#0c3483"></stop></linearGradient><linearGradient id="103" x1="0%" y1="0%" x2="100%" y2="0%"><stop offset="0%" stop-color="#7ac5d8"></stop> <stop offset="100%" stop-color="#eea2a2"></stop></linearGradient><linearGradient id="104" x1="0%" y1="0%" x2="100%" y2="0%"><stop offset="0%" stop-color="#00ecbc"></stop> <stop offset="100%" stop-color="#007adf"></stop></linearGradient><linearGradient id="105" x1="0%" y1="0%" x2="100%" y2="0%"><stop offset="0%" stop-color="#b88746"></stop> <stop offset="100%" stop-color="#fdf5a6"></stop></linearGradient></defs><g class="imagesvg isNoFont" transform="translate(155.06143951416016,110.06144046783447)"><g><rect fill="#333" fill-opacity="0" stroke-width="2" x="0" y="0" width="29.877120735378437" height="29.877120735378437" class="image-rect"></rect> <svg x="0" y="0" width="29.877120735378437" height="29.877120735378437" filtersec="colorsb6764077049" class="image-svg-svg primary" style="overflow: visible;"><svg xmlns="http://www.w3.org/2000/svg" viewBox="0 0 50.530006408691406 50.53000259399414"><path d="M36.66 18.69a3.41 3.41 0 1 0-4.82 0 3.41 3.41 0 0 0 4.82 0z" fill="#0cf"></path><circle cx="46.16" cy="4.37" r="4.37" fill="#0cf"></circle><path d="M18.69 18.69a3.41 3.41 0 1 0-4.82 0 3.41 3.41 0 0 0 4.82 0zM31.84 36.66a3.41 3.41 0 1 0 0-4.82 3.41 3.41 0 0 0 0 4.82z" fill="#0cf"></path><circle cx="46.16" cy="46.16" r="4.37" fill="#0cf"></circle><path d="M18.82 36.53a3.4 3.4 0 1 0-4.81 0 3.41 3.41 0 0 0 4.81 0z" fill="#0cf"></path><path d="M22.1 9.32c-1.3 1-2.61 2.09-3.92 3.25a4.14 4.14 0 0 1 1.07.75 4.25 4.25 0 0 1 .87 1.29c1.49-1.32 3-2.54 4.46-3.63-.83-.6-1.66-1.14-2.48-1.66zM9.3 22.12c.51.82 1.07 1.65 1.66 2.48 1.14-1.56 2.38-3.05 3.65-4.48a4.17 4.17 0 0 1-1.29-.88 4.09 4.09 0 0 1-.75-1.06 63.1 63.1 0 0 0-3.27 3.94zM31.28 37.21a4.2 4.2 0 0 1-.87-1.29C23.08 42.44 15 46.63 9.62 46.63a5.81 5.81 0 0 1-4.26-1.47c-1.94-1.95-1.92-5.93.08-11a38.23 38.23 0 0 1 2.91-5.73c-.63-.82-1.21-1.65-1.76-2.47a42.35 42.35 0 0 0-3.76 7.17c-2.47 6.19-2.27 11.16.55 14a8.44 8.44 0 0 0 6.23 2.27c6.27 0 14.72-4.26 22.73-11.43a4.3 4.3 0 0 1-1.06-.76zM34.2 5.45a18.65 18.65 0 0 1 6.7-1.53h.1a5.19 5.19 0 0 1 1.09-2.74 11.53 11.53 0 0 0-1.19-.07 21.21 21.21 0 0 0-7.74 1.72A43 43 0 0 0 26 6.57c.82.56 1.65 1.14 2.48 1.77a37.86 37.86 0 0 1 5.72-2.89zM49.34 8.44a5.1 5.1 0 0 1-2.75 1.08 18.47 18.47 0 0 1-1.5 6.81 39.1 39.1 0 0 1-2.9 5.73c.61.82 1.2 1.65 1.76 2.48a42.72 42.72 0 0 0 3.75-7.18 19.61 19.61 0 0 0 1.64-8.92zM41.23 28.42c-.51-.82-1.06-1.65-1.65-2.48-1.11 1.51-2.34 3-3.65 4.47a4 4 0 0 1 2 1.95c1.22-1.36 2.31-2.64 3.3-3.94z" fill="#00a0da"></path><path d="M3.94 9.52a5.1 5.1 0 0 1-2.76-1.09 19.79 19.79 0 0 0 1.65 8.93 52.88 52.88 0 0 0 9.77 15 4.15 4.15 0 0 1 .85-1.24 3.9 3.9 0 0 1 1.12-.78 49.38 49.38 0 0 1-9.12-14 18.72 18.72 0 0 1-1.51-6.82zM40.9 46.59a18.73 18.73 0 0 1-6.7-1.51 38.11 38.11 0 0 1-5.74-2.89c-.82.62-1.64 1.2-2.45 1.76a42.14 42.14 0 0 0 7.16 3.75 21.38 21.38 0 0 0 7.75 1.72 11.71 11.71 0 0 0 1.19-.06A5.12 5.12 0 0 1 41 46.58zM24.57 39.57a64.141 64.141 0 0 1-4.41-3.61 4.08 4.08 0 0 1-.78 1.13 4.25 4.25 0 0 1-1.24.84c1.3 1.17 2.63 2.27 3.95 3.29.83-.52 1.65-1.06 2.48-1.65zM46.59 41a5.17 5.17 0 0 1 2.76 1.09 19.22 19.22 0 0 0-1.65-8.93 52.53 52.53 0 0 0-9.73-15 4.31 4.31 0 0 1-.75 1.07 4.14 4.14 0 0 1-1.29.87 49.56 49.56 0 0 1 9.16 14.1 18.52 18.52 0 0 1 1.5 6.8zM9.62 3.9c5.38 0 13.46 4.19 20.79 10.71a4.08 4.08 0 0 1 .87-1.29 4.18 4.18 0 0 1 1.07-.76C24.35 5.4 15.89 1.14 9.62 1.14a11.37 11.37 0 0 0-1.18.06 5 5 0 0 1 1.07 2.71z" fill="#00a0da"></path><circle cx="4.37" cy="4.37" r="4.37" fill="#0cf"></circle></svg></svg> </g></g><defs v-gra="od"></defs></g></svg>